# xmcd CD database file
#
# Track frame offsets:
#	150
#	32747
#	62104
#	98467
#	146582
#	183729
#	210074
#	240403
#
# Disc length: 3623 seconds
#
# Revision: 1
# Processed by: cddbd v1.5.2PL0 Copyright (c) Steve Scherf et al.
# Submitted via: CDex 1.51
#
DISCID=620e2508
DTITLE=Joey DeFrancesco - Joey D!
DYEAR=2008
DGENRE=Jazz
TTITLE0=Dig
TTITLE1=Lament
TTITLE2=Take Me Out To the Ballgame
TTITLE3=If Ever I Should Leave You
TTITLE4=Besamé Mucho
TTITLE5=Come Dance With Me
TTITLE6=Nancy (With the Laughing Face)
TTITLE7=Blues Up and Down
EXTD=YEAR: 2008
EXTT0=
EXTT1=
EXTT2=
EXTT3=
EXTT4=
EXTT5=
EXTT6=
EXTT7=
PLAYORDER=
